:SAMPLES-PER-SECOND 30
:FULLY-SPECIFIED
:DEGREES
342
root  34.86550098 36.51259415 -14.83185686 8.713995934 -7.06563282 3.622692347
lowerback  -8.465330124 -1.333320022 -0.9128966928
upperback  -4.172850132 -1.244650006 -2.963409901
thorax  0.3817670047 -0.4558750093 -2.651669979
lowerneck  -12.96370029 -7.359360218 -6.091810226
upperneck  21.61919975 -10.05570126 7.670229912
head  9.68873024 -4.074409962 2.451200008
lclavicle  0 -4.497500157e-015 -2.743230041e-014
lhumerus  -49.09609985 29.48749924 63.80849838
lradius  0.007069340441 -6.507048965e-006 30.72540092
lwrist  4.824992743e-007 -3.790274832e-007 -27.5781002
lhand  -4.405300586e-031 -36.72040176 -10.72439957
lfingers  90 7.125020027 -90
lthumb  94.74225044 -25.56571091 100.8814038
rclavicle  0 -4.497500157e-015 -2.743230041e-014
rhumerus  -58.10010147 -30.39080238 -48.70229721
rradius  -5.16745672e-007 2.214343908e-008 81.43039703
rwrist  -2.867388866e-005 0.0111028729 -171.5590057
rhand  -1.775242907e-031 5.986219883 -7.881830215
rfingers  -90 -7.125020027 -90
rthumb  -84.88329923 -8.341505645 -58.31643225
rfemur  -12.97005272 16.09720802 12.41261482
rtibia  -1.024551511 -1.451849103 21.08321762
rfoot  0.4247444868 -22.93140793 -34.3646431
rtoes  4.099939364 19.59211694 -102.066185
lfemur  -8.382281303 -16.38598824 -20.52181435
ltibia  2.214897156 -1.420743346 15.08424282
lfoot  0.8290221691 -22.81879997 38.19277954
ltoes  -8.506763157 -18.16811184 -115.6267749
343
root  34.86717104 36.5132009 -14.83037904 8.71107769 -7.087603092 3.623044491
lowerback  -8.472539902 -1.305520058 -0.8789663911
upperback  -4.161920071 -1.210459948 -2.975950003
thorax  0.3972879946 -0.4396939874 -2.681099892
lowerneck  -12.99419975 -7.327660084 -6.084410191
upperneck  21.67090034 -10.03010082 7.762460232
head  9.715760231 -4.046319962 2.485500097
lclavicle  0 -4.497500157e-015 -2.743230041e-014
lhumerus  -48.96289825 29.32460022 63.9137001
lradius  0.007069340441 -6.507048965e-006 30.7174511
lwrist  4.824992743e-007 -3.790274832e-007 -27.48350143
lhand  -4.405300586e-031 -36.72040176 -10.72439957
lfingers  90 7.125020027 -90
lthumb  94.74225044 -25.56571091 100.8814038
rclavicle  0 -4.497500157e-015 -2.743230041e-014
rhumerus  -57.77719879 -30.65650177 -49.04919434
rradius  -5.16745672e-007 2.214343908e-008 79.46130371
rwrist  -2.867388866e-005 0.0111028729 -171.0370026
rhand  -1.775242907e-031 5.986219883 -7.881830215
rfingers  -90 -7.125020027 -90
rthumb  -84.88329923 -8.341505645 -58.31643225
rfemur  -12.97286415 16.10138321 12.40288353
rtibia  -1.022822142 -1.462210536 21.08321381
rfoot  0.4252149463 -22.95222092 -34.35095596
rtoes  4.099939364 19.59211694 -102.066185
lfemur  -8.403617859 -16.43789291 -20.52798271
ltibia  2.193184376 -1.466467142 15.12543297
lfoot  0.8072324395 -22.74355698 38.1810112
ltoes  -8.506763157 -18.16811184 -115.6267749
344
root  34.86991041 36.51354932 -14.82987592 8.702689171 -7.11449194 3.627939224
lowerback  -8.521248817 -1.280549884 -0.8615618944
upperback  -4.140620232 -1.177829981 -2.979680061
thorax  0.4469519854 -0.4239900112 -2.693130016
lowerneck  -13.03800011 -7.283140182 -6.019470215
upperneck  21.71419907 -9.979480743 7.761769772
head  9.73167038 -4.01364994 2.480959892
lclavicle  0 -4.497500157e-015 -2.743230041e-014
lhumerus  -48.8606987 29.31229973 63.9510994
lradius  0.007069340441 -6.507048965e-006 30.71689987
lwrist  4.824992743e-007 -3.790274832e-007 -27.50119972
lhand  -4.405300586e-031 -36.72040176 -10.72439957
lfingers  90 7.125020027 -90
lthumb  94.74225044 -25.56571091 100.8814038
rclavicle  0 -4.497500157e-015 -2.743230041e-014
rhumerus  -57.4435997 -30.9183979 -49.35169983
rradius  -5.16745672e-007 2.214343908e-008 77.6384964
rwrist  -2.867388866e-005 0.0111028729 -170.0390015
rhand  -1.775242907e-031 5.986219883 -7.881830215
rfingers  -90 -7.125020027 -90
rthumb  -84.88329923 -8.341505645 -58.31643225
rfemur  -12.95831013 16.10383797 12.3849926
rtibia  -1.023824453 -1.491625428 21.06630325
rfoot  0.4357489347 -22.9683342 -34.32119751
rtoes  4.099939364 19.59211694 -102.066185
lfemur  -8.400974274 -16.43570709 -20.55627823
ltibia  2.191967487 -1.502039433 15.13767815
lfoot  0.7913433313 -22.68274689 38.15162277
ltoes  -8.506763157 -18.16811184 -115.6267749
345
root  34.8724996 36.51493703 -14.82777333 8.725922585 -7.136412621 3.631634235
lowerback  -8.508779526 -1.261029959 -0.858145535
upperback  -4.119170189 -1.154579997 -2.981050014
thorax  0.4631220102 -0.4134710133 -2.694380045
lowerneck  -13.09790039 -7.235499859 -5.942490101
upperneck  21.77709961 -9.91862011 7.720230579
head  9.753749847 -3.9790802 2.461250067
lclavicle  0 -4.497500157e-015 -2.743230041e-014
lhumerus  -48.78070068 29.32139969 63.97129822
lradius  0.007069340441 -6.507048965e-006 30.70034218
lwrist  4.824992743e-007 -3.790274832e-007 -27.53089905
lhand  -4.405300586e-031 -36.72040176 -10.72439957
lfingers  90 7.125020027 -90
lthumb  94.74225044 -25.56571091 100.8814038
rclavicle  0 -4.497500157e-015 -2.743230041e-014
rhumerus  -57.17060089 -31.35130119 -49.50319672
rradius  -5.16745672e-007 2.214343908e-008 75.6309967
rwrist  -2.867388866e-005 0.0111028729 -169.5720062
rhand  -1.775242907e-031 5.986219883 -7.881830215
rfingers  -90 -7.125020027 -90
rthumb  -84.88329923 -8.341505645 -58.31643225
rfemur  -12.96342373 16.10465813 12.37674904
rtibia  -1.024623036 -1.511959434 21.02407074
rfoot  0.4638066888 -22.98281288 -34.28207016
rtoes  4.099939364 19.59211694 -102.066185
lfemur  -8.449147224 -16.37921715 -20.53063393
ltibia  2.168579578 -1.476278543 15.17519855
lfoot  0.8158225417 -22.7621479 38.16792679
ltoes  -8.506763157 -18.16811184 -115.6267749
